<?xml version="1.0" encoding="utf-8"?>
<!-- Generator: Adobe Illustrator 24.2.0, SVG Export Plug-In . SVG Version: 6.00 Build 0)  -->
<svg version="1.1" id="Capa_1" xmlns="http://www.w3.org/2000/svg" xmlns:xlink="http://www.w3.org/1999/xlink" x="0px" y="0px"
	 viewBox="0 0 100 100" style="enable-background:new 0 0 100 100;" xml:space="preserve">
<style type="text/css">
	.st0{stroke:#FFFFFF;stroke-width:0.5;stroke-miterlimit:10;}
	.st1{fill:#020203;}
</style>
<g id="ELtXkU_1_">
	<g>
		<path d="M70.71,66.45c2.03,2.03,3.96,3.97,5.92,5.88c0.21,0.2,0.63,0.21,0.96,0.24c3.24,0.24,5.61,2.81,5.52,6.02
			c-0.09,3.15-2.62,5.58-5.82,5.61c-3.06,0.02-5.56-2.4-5.77-5.57c-0.02-0.3-0.02-0.69-0.2-0.88c-1.92-1.99-3.87-3.95-5.84-5.95
			c-1.95,1.94-3.75,3.81-5.62,5.6c-1.87,1.79-4.74,1.35-5.93-0.84c-0.81-1.49-0.53-3.36,0.7-4.54c0.68-0.65,1.39-1.26,2.05-1.86
			c-2.36-2.35-4.54-4.52-6.69-6.66c-2.09,2.11-4.26,4.29-6.72,6.77c0.55,0.44,1.26,0.95,1.9,1.54c1.71,1.58,1.85,3.99,0.35,5.53
			c-1.52,1.57-3.88,1.53-5.54-0.1c-0.88-0.86-1.74-1.73-2.61-2.61c-0.83-0.85-1.65-1.71-2.64-2.74c-1.2,1.25-2.33,2.39-3.4,3.58
			c-0.19,0.21-0.16,0.65-0.19,0.99c-0.22,2.57-2.06,4.76-4.44,5.28c-2.59,0.56-5.08-0.51-6.41-2.77c-1.22-2.07-0.92-4.96,0.74-6.77
			c1.09-1.19,2.48-1.77,4.09-1.93c0.44-0.05,0.92-0.28,1.26-0.57c1.06-0.91,2.06-1.89,3.19-2.95c-2.08-2.05-4-3.9-5.88-5.8
			c-1.38-1.4-1.52-3.42-0.42-4.9c1.36-1.82,3.9-2.09,5.57-0.56c0.75,0.69,1.42,1.46,2.09,2.16c2.25-2.28,4.43-4.5,6.71-6.81
			c-1.99-1.97-4.14-4.08-6.27-6.21c-4.23-4.22-8.49-8.41-12.66-12.69c-0.66-0.68-1.18-1.74-1.27-2.66c-0.31-3.39-0.4-6.8-0.57-10.21
			c-0.05-0.89,0.38-1.3,1.27-1.24c3.44,0.22,6.88,0.37,10.3,0.71c0.85,0.09,1.8,0.66,2.43,1.28c6.13,6.05,12.21,12.16,18.3,18.24
			c0.24,0.24,0.5,0.48,0.89,0.85c1.72-1.77,3.4-3.51,5.1-5.22c4.61-4.63,9.25-9.25,13.86-13.89c0.83-0.84,1.79-1.3,2.98-1.37
			c2.81-0.18,5.61-0.42,8.42-0.61c1.79-0.12,2.74,0.79,2.65,2.56c-0.14,2.91-0.31,5.83-0.48,8.74c-0.07,1.18-0.6,2.12-1.43,2.96
			C75.08,38.15,69,44.25,62.91,50.34c-0.22,0.22-0.43,0.45-0.64,0.67c2.22,2.2,4.42,4.37,6.81,6.74c0.55-0.62,1.14-1.36,1.8-2.01
			c1.62-1.6,4-1.65,5.47-0.15c1.5,1.54,1.46,3.83-0.16,5.47C74.41,62.86,72.59,64.61,70.71,66.45z M57.92,68.37
			c3.22-3.2,6.25-6.21,9.3-9.24c-0.08-0.09-0.2-0.22-0.32-0.34C54.72,46.61,42.53,34.43,30.38,22.22c-1.07-1.08-2.14-1.78-3.72-1.79
			c-1.9-0.01-3.81-0.24-5.96-0.39c0.43,0.45,0.66,0.7,0.9,0.94c11.04,11.04,22.08,22.07,33.12,33.11c1.02,1.02,2.04,2.04,3.06,3.06
			c0.48,0.49,0.65,1.04,0.14,1.58c-0.49,0.53-1.06,0.48-1.58,0c-0.26-0.24-0.51-0.48-0.76-0.73C44.04,46.47,32.51,34.93,20.97,23.4
			c-0.55-0.55-1.13-1.09-1.89-1.83c0.15,2.51,0.31,4.71,0.4,6.92c0.04,0.95,0.41,1.64,1.07,2.3c11.95,11.92,23.88,23.86,35.81,35.8
			C56.95,67.18,57.46,67.85,57.92,68.37z M79.15,20.28c-0.03-0.08-0.05-0.16-0.08-0.24c-2.23,0.17-4.46,0.29-6.67,0.54
			c-0.64,0.07-1.4,0.34-1.85,0.79c-5.23,5.16-10.39,10.38-15.6,15.56c-1.13,1.13-2.35,2.18-3.41,3.16c1.51,1.52,2.79,2.8,4.1,4.11
			C63.44,36.26,71.29,28.27,79.15,20.28z M80.91,21.86c-0.08-0.02-0.16-0.04-0.25-0.07c-7.87,8.01-15.74,16.02-23.5,23.91
			c1.25,1.31,2.39,2.52,3.53,3.72c0.08-0.05,0.15-0.07,0.2-0.12c6.31-6.31,12.63-12.62,18.93-18.95c0.26-0.26,0.53-0.63,0.56-0.97
			C80.6,26.88,80.74,24.37,80.91,21.86z M32.84,59.22c3,3.01,5.99,6.02,8.87,8.92c2.17-2.15,4.38-4.32,6.55-6.47
			c-2.96-2.96-5.96-5.96-8.96-8.96C37.15,54.87,34.98,57.06,32.84,59.22z M44.7,74.82c-0.38-0.57-0.59-1.05-0.94-1.4
			c-4.08-4.11-8.19-8.2-12.28-12.29c-1.32-1.32-2.61-2.66-3.96-3.94c-1.04-0.98-2.62-0.59-2.75,0.74c-0.06,0.58,0.34,1.36,0.77,1.81
			c4.13,4.21,8.32,8.36,12.48,12.54c1.14,1.14,2.26,2.3,3.41,3.43c0.59,0.59,1.32,0.92,2.09,0.44
			C43.97,75.86,44.26,75.33,44.7,74.82z M75.31,58.54c-0.02-1.49-1.29-2.27-2.34-1.72c-0.27,0.14-0.51,0.37-0.73,0.59
			c-3.29,3.27-6.58,6.54-9.86,9.82c-2.09,2.09-4.17,4.18-6.24,6.28c-0.65,0.65-0.79,1.4-0.24,2.19c0.47,0.67,1.15,0.81,1.87,0.55
			c0.38-0.14,0.71-0.45,1.01-0.74c1.25-1.24,2.47-2.5,3.71-3.74c4.02-4.03,8.05-8.05,12.06-12.09
			C74.91,59.29,75.15,58.78,75.31,58.54z M67.01,70.34c0.25,0.26,0.48,0.52,0.73,0.76c1.78,1.79,3.59,3.55,5.33,5.37
			c0.34,0.36,0.6,0.97,0.58,1.45c-0.1,2.23,1.34,4.01,3.44,4.11C79.25,82.14,81,80.5,81,78.39c0-2.11-1.7-3.73-3.89-3.62
			c-0.77,0.04-1.32-0.19-1.86-0.73c-1.96-2-3.95-3.97-5.95-5.97C68.54,68.82,67.8,69.56,67.01,70.34z M30.88,68.19
			c-0.94,0.97-1.84,1.9-2.75,2.81c-0.83,0.84-1.61,1.57-3.03,1.49c-1.98-0.11-3.53,1.76-3.44,3.72c0.1,2.12,1.79,3.62,3.93,3.51
			c1.96-0.1,3.58-1.86,3.38-3.83c-0.08-0.85,0.18-1.37,0.77-1.92c1.18-1.12,2.3-2.32,3.33-3.37C32.32,69.78,31.64,69.03,30.88,68.19
			z"/>
	</g>
</g>
</svg>
