<?xml version="1.0" encoding="utf-8"?>
<!-- Generator: Adobe Illustrator 24.2.0, SVG Export Plug-In . SVG Version: 6.00 Build 0)  -->
<svg version="1.1" id="Capa_1" xmlns="http://www.w3.org/2000/svg" xmlns:xlink="http://www.w3.org/1999/xlink" x="0px" y="0px"
	 viewBox="0 0 100 100" style="enable-background:new 0 0 100 100;" xml:space="preserve">
<style type="text/css">
	.st0{stroke:#FFFFFF;stroke-width:0.5;stroke-miterlimit:10;}
	.st1{fill:#020203;}
</style>
<g id="_x33_ZBWaf_1_">
	<g>
		<path class="st0" d="M84.3,57.13c0.82,3.47,0.39,6.63-2.11,9.22c-3.03,3.13-6.47,5.73-10.55,7.39c-1.41,0.57-2.87,0.94-4.47,1
			c0.26,0.6,0.54,1.16,0.76,1.75c0.38,1.05,0.78,2.11,1.07,3.19c0.26,0.96-0.01,1.83-0.8,2.49c-2.49,2.06-5.3,3.1-8.57,2.77
			c-1.9-0.19-3.25-1.1-4.23-2.75c-1.19-2.01-2.88-3.51-5.07-4.43c-2.9-1.22-4.99-3.33-6.17-6.22c-0.84-2.08-1.48-4.24-2.12-6.4
			c-0.23-0.76-0.53-1.19-1.36-1.38c-2.09-0.48-4.01-1.41-5.78-2.62c-0.5-0.34-0.99-0.07-1.47-0.03c-2.71,0.27-5.38,0.29-7.88-1
			c-0.52-0.27-1.01-0.4-1.6-0.37c-1.69,0.08-3.36-0.09-4.97-0.68c-2.73-1.01-4.41-2.97-5.22-5.72c-0.57-1.94-0.59-3.92-0.43-5.92
			c0.05-0.61-0.18-1.24-0.27-1.87c-0.37-2.51-0.43-4.99,0.68-7.36c0.6-1.29,1.5-2.34,2.6-3.22c0.46-0.36,0.74-0.79,0.96-1.31
			c0.66-1.56,1.33-3.12,2.31-4.52c1.43-2.05,3.36-3.49,5.62-4.47c1.52-0.66,3-1.29,4.24-2.49c1.28-1.24,2.96-1.67,4.75-1.56
			c0.34,0.02,0.6-0.05,0.89-0.27c1.56-1.17,3.3-1.89,5.29-1.75c0.57,0.04,1.07-0.06,1.6-0.27c2.28-0.91,4.62-0.91,6.96-0.27
			c0.6,0.16,1.12,0.18,1.73-0.06c2.12-0.82,4.33-1.13,6.59-0.9c3.02,0.32,5.7,1.54,8.12,3.33c0.3,0.22,0.62,0.42,0.87,0.69
			c0.56,0.59,1.22,0.84,2.03,0.9c2.45,0.19,4.43,1.35,6.06,3.13c0.55,0.6,1,1.3,1.51,1.93c0.16,0.2,0.39,0.4,0.63,0.49
			c3.18,1.12,5.25,3.3,6.29,6.5c0.08,0.24,0.28,0.47,0.49,0.62c1.56,1.08,2.84,2.38,3.43,4.24c0.43,1.37,0.41,2.77,0.18,4.18
			c-0.1,0.59-0.36,1.17-0.38,1.76c-0.02,0.57,0.17,1.14,0.29,1.71c0.43,2.19,0.64,4.37,0.05,6.57
			C86.39,54.76,85.54,56.11,84.3,57.13z M64.51,25.08c-1.17-1.12-2.42-2.1-3.83-2.86c-1.54-0.82-3.17-1.28-4.93-1.21
			c-1.53,0.06-2.97,0.48-4.37,1.08c-0.29,0.12-0.47,0.3-0.43,0.63c0.22,1.57,0.44,3.14,0.65,4.72c0.07,0.51,0.4,0.79,0.86,0.93
			c0.51,0.16,1.03,0.31,1.56,0.42c0.81,0.17,1.33,0.82,1.23,1.59c-0.11,0.81-0.78,1.33-1.61,1.23c-0.39-0.04-0.78-0.14-1.19-0.21
			c-0.01,1.47-0.54,2.72-1.42,3.81c-1.2,1.48-2.75,2.25-4.67,2.24c-0.73-0.01-1.32-0.55-1.37-1.24c-0.06-0.82,0.41-1.45,1.18-1.57
			c0.23-0.04,0.46-0.04,0.69-0.06c1.61-0.13,2.97-2.11,2.63-3.69c-0.46-2.09-0.87-4.2-1.24-6.31c-0.15-0.83-0.15-1.68-0.22-2.55
			c-0.92-0.23-1.83-0.57-2.84-0.41c-0.92,0.14-1.75,0.48-2.55,0.94c-0.54,0.31-1.11,0.46-1.69,0.27c-1.41-0.45-2.53,0.03-3.55,0.97
			c-0.21,0.19-0.25,0.33-0.08,0.58c0.83,1.27,1.5,2.62,1.93,4.08c0.05,0.18,0.31,0.4,0.5,0.42c0.63,0.07,1.26,0.03,1.89,0.09
			c0.75,0.07,1.26,0.72,1.22,1.48c-0.04,0.7-0.64,1.29-1.36,1.32c-0.22,0.01-0.43,0-0.65,0.02c-1.18,0.11-2.28-0.09-3.13-0.78
			c-0.84,0.47-1.61,0.95-2.42,1.34c-0.81,0.38-1.66,0.04-1.99-0.7c-0.33-0.76,0.03-1.53,0.87-1.92c0.39-0.18,0.78-0.37,1.14-0.61
			c0.75-0.51,0.84-0.89,0.42-1.68c-0.39-0.74-0.82-1.45-1.23-2.18c-0.32-0.57-0.53-0.67-1.18-0.5c-0.16,0.04-0.32,0.1-0.48,0.17
			c-0.89,0.41-1.54,1.12-2.23,1.79c-0.31,0.3-0.7,0.56-1.11,0.7c-1.69,0.57-3.34,1.18-4.77,2.28c-2.11,1.62-2.84,4.08-3.91,6.33
			c1.49,1.27,3.12,2,5.08,1.8c1.69-0.17,2-0.15,1.97-2.23c-0.01-0.49-0.05-0.99,0-1.48c0.08-0.87,0.71-1.4,1.52-1.34
			c0.83,0.06,1.32,0.63,1.32,1.54c0,0.7,0,1.4,0,2.14c1.42-0.33,2.75-0.41,4.08-0.11c1.75,0.4,3.18,1.32,4.27,2.75
			c0.38,0.49,0.36,1.04,0.04,1.56c-0.32,0.51-0.79,0.7-1.38,0.65c-0.55-0.05-0.87-0.42-1.2-0.79c-0.66-0.73-1.48-1.2-2.46-1.39
			c-1.3-0.25-2.54,0.02-3.77,0.44c-1.1,0.37-2.21,0.76-3.35,0.99c-1.93,0.39-3.82,0.16-5.58-0.77c-0.84-0.45-1.62-1.01-2.44-1.53
			c-1.73,1.27-2.19,3.57-1.75,5.96c0.35-0.05,0.69-0.13,1.04-0.15c1.45-0.08,2.73,0.42,3.92,1.18c0.48,0.31,0.66,0.79,0.59,1.37
			c-0.07,0.57-0.4,0.92-0.9,1.13c-0.48,0.2-0.94,0.09-1.36-0.19c-0.7-0.46-1.46-0.74-2.32-0.62c-0.32,0.05-0.53,0.11-0.58,0.54
			c-0.15,1.31-0.2,2.62,0.04,3.92c0.27,1.55,0.92,2.86,2.39,3.59c1.32,0.66,2.76,0.8,4.21,0.62c1.05-0.13,2.04-0.16,2.93,0.61
			c0.32,0.28,0.78,0.43,1.21,0.56c1.56,0.46,3.14,0.41,4.74,0.24c0.52-0.05,0.67-0.19,0.74-0.72c0.17-1.31,0.58-2.56,1.74-3.34
			c0.64-0.43,1.39-0.72,2.11-1.02c0.83-0.34,1.59-0.02,1.92,0.75c0.32,0.74-0.03,1.51-0.85,1.88c-0.38,0.17-0.76,0.34-1.15,0.5
			c-0.44,0.18-0.69,0.5-0.81,0.95c-0.06,0.24-0.06,0.5-0.14,0.72c-0.14,0.4,0.02,0.6,0.34,0.83c1.9,1.35,3.99,2.28,6.3,2.63
			c1.41,0.21,2.82,0.32,4.25,0.09c-0.04-0.66-0.11-1.3-0.12-1.95c-0.04-1.44,0.07-2.88,1-4.05c0.59-0.74,1.33-1.37,2.06-1.99
			c0.66-0.57,1.59-0.45,2.11,0.19c0.49,0.6,0.35,1.49-0.31,2.06c-0.34,0.29-0.69,0.58-1.03,0.87c-0.57,0.49-0.89,1.1-0.9,1.86
			c-0.01,1.13,0,2.25,0,3.34c0.28,0.11,0.43,0.18,0.59,0.23c1.03,0.3,2.05,0.7,3.11,0.85c1.68,0.24,3.03-0.6,4.31-1.58
			c0.36-0.28,0.38-0.5,0.15-0.86c-0.92-1.46-0.99-3.01-0.44-4.62c0.29-0.85,1.26-1.24,2.04-0.83c0.64,0.34,0.87,1.01,0.69,1.79
			c-0.11,0.47-0.2,0.98-0.11,1.44c0.1,0.49,0.44,0.93,0.67,1.4c0.55-0.18,1.18-0.24,1.63-0.57c0.79-0.57,1.51-1.27,2.19-1.97
			c0.79-0.81,1.88-1.02,2.86-0.46c0.5,0.28,1,0.56,1.52,0.78c0.79,0.33,1.59,0.48,2.41,0.06c0.27-0.14,0.35-0.31,0.3-0.59
			c-0.09-0.49-0.15-0.98-0.25-1.46c-0.31-1.58,0.06-2.94,1.23-4.06c0.45-0.43,0.95-0.61,1.56-0.4c0.57,0.2,0.87,0.62,0.95,1.2
			c0.07,0.58-0.26,0.98-0.61,1.39c-0.16,0.19-0.35,0.45-0.33,0.67c0.04,0.77,0.17,1.53,0.27,2.33c1.97,0.06,3.88,0.02,5.69-0.82
			c1.23-0.57,1.98-1.53,2.13-2.83c0.13-1.07,0.04-2.18-0.03-3.27c-0.04-0.63-0.23-1.26-0.36-1.91c-1.31,0.29-2.55,0.26-3.79,0.07
			c-0.93-0.14-1.86-0.33-2.67-0.85c-0.7-0.45-0.9-1.25-0.51-1.94c0.36-0.64,1.19-0.91,1.89-0.56c1.28,0.63,2.64,0.73,4.02,0.57
			c1.04-0.12,1.27-0.35,1.41-1.4c0.01-0.11,0.05-0.21,0.06-0.32c0.16-1.29-0.13-2.43-1.18-3.29c-0.47-0.38-0.94-0.76-1.46-1.06
			c-0.8-0.46-1.19-1.13-1.35-2.03c-0.46-2.55-1.86-3.9-4.39-4.32c-0.78,1.31-0.83,2.18-0.15,3.54c0.21,0.41,0.51,0.78,0.69,1.2
			c0.16,0.35,0.31,0.76,0.28,1.13c-0.05,0.6-0.47,1-1.06,1.15c-0.61,0.16-1.21-0.09-1.56-0.66c-0.44-0.71-0.85-1.45-1.27-2.19
			c-0.07,0.04-0.16,0.08-0.23,0.13c-1.36,1.02-3.27,0.87-4.6-0.07c-0.78-0.55-0.88-1.52-0.25-2.21c0.44-0.49,1.36-0.52,1.91-0.13
			c0.6,0.43,0.87,0.42,1.41-0.03c0.41-0.34,0.83-0.72,1.11-1.16c0.57-0.9,1.04-1.85,1.54-2.76c-0.19-0.26-0.33-0.48-0.5-0.68
			c-1.11-1.35-2.39-2.41-4.23-2.55c-0.22-0.02-0.4-0.05-0.51,0.24c-0.42,1.09-1.05,2.06-1.81,2.94c-0.82,0.95-1.8,1.69-2.95,2.19
			c-0.75,0.33-1.53,0.03-1.88-0.68c-0.33-0.66-0.1-1.51,0.58-1.84C62.7,28.1,63.75,26.75,64.51,25.08z M46.2,64.5
			c0.01,0.08,0,0.14,0.02,0.2c0.48,1.48,0.94,2.96,1.45,4.43c0.82,2.36,2.27,4.12,4.71,5c1.36,0.49,2.52,1.36,3.6,2.32
			c1.3,1.16,2.37,2.51,3.31,3.97c0.08,0.13,0.22,0.29,0.36,0.31c1.6,0.24,3.13,0.07,4.54-0.81c0.38-0.24,0.46-0.43,0.28-0.84
			c-0.84-1.95-1.66-3.91-2.49-5.87c-0.05-0.11-0.11-0.22-0.2-0.3c-1.97-1.77-2.82-4.03-2.97-6.61c-0.03-0.61-0.01-1.21-0.01-1.87
			c-0.23,0.09-0.39,0.18-0.56,0.23c-1.19,0.38-2.35,0.88-3.56,1.09c-1.54,0.27-3.02-0.23-4.47-0.75c-0.59-0.21-1.17-0.54-1.78-0.61
			C47.71,64.32,46.96,64.46,46.2,64.5z M80.3,59c-1.82,0.41-3.61,0.5-5.4,0.45c-0.18,0-0.38,0.02-0.53,0.1
			c-2.21,1.29-4.47,1.38-6.76,0.27c-0.29-0.14-0.48-0.12-0.72,0.11c-0.95,0.88-2.01,1.58-3.21,2.07c-0.18,0.07-0.38,0.29-0.42,0.47
			c-0.16,0.72-0.33,1.45-0.37,2.18c-0.07,1.52,0.2,2.99,1.09,4.27c0.62,0.89,1.41,1.54,2.56,1.62c1.12,0.08,2.18-0.16,3.21-0.55
			c2.17-0.81,4.12-2.03,5.93-3.46c1.57-1.23,3.13-2.47,4.32-4.11C80.78,61.37,80.76,60.22,80.3,59z"/>
		<path class="st0" d="M30.45,49.42c-0.69,1.03-1.7,1.59-2.79,2.05c-0.77,0.33-1.45,0.77-1.92,1.52c-0.4,0.63-1.32,0.75-1.94,0.34
			c-0.64-0.43-0.82-1.27-0.41-1.95c0.61-0.99,1.49-1.68,2.5-2.21c0.35-0.19,0.7-0.4,1.08-0.53c1.15-0.39,1.48-1.3,1.57-2.37
			c0.02-0.26,0.04-0.52,0.07-0.79c0.09-0.7,0.6-1.21,1.27-1.26c0.71-0.06,1.31,0.35,1.53,1.02c0.17,0.51,0.32,1.03,0.56,1.51
			c0.42,0.84,0.96,1.04,1.84,0.72c1.34-0.48,2.39-1.38,3.41-2.33c0.5-0.47,1.09-0.6,1.66-0.35c0.86,0.37,1.17,1.47,0.53,2.16
			c-1.37,1.49-2.93,2.75-4.94,3.31C33.01,50.66,31.65,50.45,30.45,49.42z"/>
		<path class="st0" d="M55.21,45.54c-0.59,1.21-1.57,2.19-2.95,2.74c-0.89,0.36-1.8,0.37-2.71,0.03c-0.81-0.31-1.18-1.04-0.92-1.81
			c0.24-0.72,1-1.09,1.79-0.89c0.8,0.2,1.38-0.2,1.85-0.76c0.62-0.74,0.77-1.59,0.41-2.51c-0.45-1.17-0.61-2.39-0.46-3.63
			c0.09-0.79,0.75-1.28,1.53-1.21c0.77,0.06,1.29,0.68,1.3,1.48c0.01,0.62,0.02,1.24,0.12,1.84c0.21,1.22,0.98,2,2.14,2.38
			c0.66,0.21,1.34,0.36,2,0.56c0.77,0.22,1.19,0.97,1,1.74c-0.18,0.72-0.98,1.19-1.74,0.99C57.46,46.19,56.35,45.86,55.21,45.54z"/>
		<path class="st0" d="M69.49,44.89c-0.08,0.47-0.16,0.87-0.2,1.29c-0.01,0.12,0.09,0.33,0.19,0.36c0.47,0.15,0.94,0.3,1.43,0.36
			c0.83,0.1,1.36,0.67,1.33,1.53c-0.03,0.76-0.64,1.31-1.46,1.29c-0.99-0.02-1.92-0.28-2.8-0.72c-0.25-0.13-0.41-0.1-0.64,0.09
			c-0.76,0.61-1.53,1.19-2.34,1.74c-0.71,0.48-1.59,0.27-2.03-0.41c-0.43-0.67-0.2-1.46,0.48-1.99c0.83-0.64,1.62-1.33,2.41-2.01
			c0.14-0.12,0.24-0.28,0.35-0.43c0.56-0.84,0.57-1.51-0.17-2.2c-0.69-0.65-1.5-1.18-2.28-1.73c-0.46-0.33-0.76-0.7-0.75-1.29
			c0.02-0.92,0.96-1.7,1.79-1.33c1.9,0.86,3.59,2.02,4.39,4.08C69.36,43.97,69.4,44.46,69.49,44.89z"/>
	</g>
</g>
</svg>
