<?xml version="1.0" encoding="utf-8"?>
<!-- Generator: Adobe Illustrator 24.2.0, SVG Export Plug-In . SVG Version: 6.00 Build 0)  -->
<svg version="1.1" id="Capa_1" xmlns="http://www.w3.org/2000/svg" xmlns:xlink="http://www.w3.org/1999/xlink" x="0px" y="0px"
	 viewBox="0 0 100 100" style="enable-background:new 0 0 100 100;" xml:space="preserve">
<style type="text/css">
	.st0{stroke:#FFFFFF;stroke-width:0.5;stroke-miterlimit:10;}
	.st1{fill:#020203;}
</style>
<g id="WiqLcX_1_">
	<g>
		<g>
			<path d="M32.12,86.06c-0.26,0-0.52-0.07-0.75-0.2l-0.22-0.13c-0.66-0.38-1.02-1.25-0.71-1.95l10.85-24.89H30.82
				c-0.49,0-0.96-0.24-1.24-0.65c-0.28-0.41-0.34-0.92-0.16-1.39l14.99-39.15c0.22-0.58,0.78-0.96,1.4-0.96h25.08
				c0.56,0,1.07,0.31,1.33,0.81c0.26,0.5,0.22,1.1-0.1,1.55L56.16,41.78h12.36c0.59,0,1.12,0.35,1.37,0.88
				c0.24,0.54,0.15,1.17-0.24,1.61L33.25,85.56C32.96,85.89,32.54,86.06,32.12,86.06z M33,55.89h10.58c0.51,0,0.98,0.25,1.25,0.68
				c0.28,0.42,0.32,0.96,0.12,1.42l-8.42,19.3L65.2,44.78H53.27c-0.56,0-1.07-0.31-1.33-0.81c-0.26-0.5-0.22-1.1,0.1-1.55L68,19.75
				H46.84L33,55.89z"/>
		</g>
	</g>
</g>
</svg>
