<?xml version="1.0" encoding="utf-8"?>
<!-- Generator: Adobe Illustrator 24.2.0, SVG Export Plug-In . SVG Version: 6.00 Build 0)  -->
<svg version="1.1" id="Capa_1" xmlns="http://www.w3.org/2000/svg" xmlns:xlink="http://www.w3.org/1999/xlink" x="0px" y="0px"
	 viewBox="0 0 100 100" style="enable-background:new 0 0 100 100;" xml:space="preserve">
<style type="text/css">
	.st0{stroke:#FFFFFF;stroke-width:0.5;stroke-miterlimit:10;}
	.st1{fill:#020203;}
</style>
<g>
	<g>
		<path class="st1" d="M84.23,43.03c-0.25-1.21-1.42-1.99-2.63-1.74c-0.16,0.03-0.31,0.08-0.46,0.15c-0.94,0.41-1.5,1.44-1.28,2.48
			C82.22,55.54,77.57,67.58,68,74.59c-6.52,4.78-14.57,6.73-22.66,5.48c-8.09-1.25-15.18-5.52-19.96-12.05
			c-9.94-13.56-6.99-32.68,6.57-42.62c6.52-4.78,14.57-6.73,22.66-5.48c7.86,1.21,14.76,5.29,19.53,11.49l-2.05-0.29
			c-1.22-0.18-2.35,0.67-2.53,1.89c-0.18,1.22,0.67,2.35,1.89,2.53l7.41,1.06c0.05,0.01,0.1,0.01,0.15,0.01
			c0.06,0,0.12,0.01,0.17,0.01c1.09,0,2.05-0.8,2.21-1.91l1.06-7.41c0.18-1.22-0.67-2.35-1.89-2.53c-1.22-0.18-2.35,0.67-2.53,1.89
			l-0.3,2.1c-5.48-7.16-13.41-11.86-22.45-13.26c-9.27-1.43-18.49,0.81-25.98,6.29C21.83,27.3,16.92,35.42,15.5,44.69
			c-1.43,9.27,0.81,18.49,6.29,25.98c5.48,7.48,13.61,12.39,22.88,13.82c1.83,0.28,3.65,0.42,5.46,0.42
			c7.37,0,14.51-2.31,20.51-6.71C81.61,70.15,86.94,56.35,84.23,43.03L84.23,43.03z"/>
		<path class="st1" d="M62.15,50.83h-7.62c-0.56-1.26-1.57-2.28-2.84-2.84V30.88c0-1.23-1-2.23-2.23-2.23s-2.23,1-2.23,2.23V48
			c-1.95,0.86-3.31,2.81-3.31,5.07c0,3.06,2.49,5.54,5.54,5.54c2.26,0,4.21-1.36,5.07-3.31h7.62c1.23,0,2.23-1,2.23-2.23
			S63.38,50.83,62.15,50.83z M48.39,53.07c0-0.6,0.48-1.08,1.08-1.08s1.08,0.48,1.08,1.08s-0.48,1.08-1.08,1.08
			S48.39,53.66,48.39,53.07z"/>
	</g>
</g>
</svg>
