<?xml version="1.0" encoding="utf-8"?>
<!-- Generator: Adobe Illustrator 24.2.0, SVG Export Plug-In . SVG Version: 6.00 Build 0)  -->
<svg version="1.1" id="Capa_1" xmlns="http://www.w3.org/2000/svg" xmlns:xlink="http://www.w3.org/1999/xlink" x="0px" y="0px"
	 viewBox="0 0 100 100" style="enable-background:new 0 0 100 100;" xml:space="preserve">
<style type="text/css">
	.st0{stroke:#FFFFFF;stroke-width:0.5;stroke-miterlimit:10;}
	.st1{fill:#020203;}
</style>
<g>
	<g>
		<path d="M83.23,51.98h-8.46L72.4,36.59c1.53,1.01,3.35,1.6,5.32,1.6c5.32,0,9.64-4.33,9.64-9.65s-4.33-9.64-9.64-9.64
			s-9.64,4.33-9.64,9.64c0,1.12,0.2,2.19,0.55,3.19l-5.27-4.51c-1.07-0.92-2.44-1.42-3.85-1.42H40.52c-2.28,0-4.13,1.85-4.13,4.13
			s1.85,4.13,4.13,4.13h17.06L43.24,45.33c-2.6,2.05-4.1,5.12-4.1,8.43c0,3.66,1.84,7.03,4.93,9.02L56.86,71l-10.78,4.49
			c-1.08,0.45-1.93,1.34-2.34,2.44c-0.4,1.1-0.33,2.33,0.21,3.38c0.74,1.44,2.22,2.28,3.75,2.28c0.57,0,1.15-0.12,1.7-0.36
			l14.86-6.56c2.32-1.08,3.82-3.43,3.82-6c0-1.74-0.71-3.45-1.94-4.68l-8.44-8.45l7.96-6.97l0.61,4.91
			c0.34,2.71,2.65,4.75,5.37,4.75h11.59c2.28,0,4.13-1.85,4.13-4.13C87.37,53.84,85.51,51.98,83.23,51.98z M77.72,21.66
			c3.8,0,6.89,3.09,6.89,6.89s-3.09,6.89-6.89,6.89c-3.8,0-6.89-3.09-6.89-6.89S73.92,21.66,77.72,21.66z M83.23,57.49H71.64
			c-1.34,0-2.47-1.01-2.64-2.34L67.74,45.1L53.66,57.41l10.53,10.53c0.72,0.72,1.13,1.71,1.13,2.73c0,1.49-0.88,2.87-2.2,3.49
			l-14.83,6.55c-0.71,0.32-1.53,0.02-1.88-0.66c-0.19-0.37-0.21-0.78-0.07-1.17c0.14-0.39,0.43-0.69,0.81-0.84l11.71-4.88
			c0.77-0.32,1.29-1.03,1.36-1.86c0.07-0.83-0.32-1.62-1.01-2.07l-13.63-8.77c-2.29-1.48-3.66-3.98-3.66-6.7
			c0-2.46,1.11-4.74,3.04-6.27l16.94-13.3L59,31.31H40.52c-0.76,0-1.38-0.62-1.38-1.38s0.62-1.38,1.38-1.38h18.99
			c0.75,0,1.48,0.26,2.05,0.75l7.98,6.85l2.86,18.58h10.83c0.76,0,1.38,0.62,1.38,1.38S83.99,57.49,83.23,57.49z"/>
		<path d="M23.6,80.22c-0.69,0.79-1.86,0.92-2.71,0.32c-0.47-0.33-0.76-0.83-0.84-1.39c-0.07-0.57,0.09-1.12,0.45-1.56l18.31-21.97
			l-2.12-1.76L18.4,75.82c-0.85,1.02-1.24,2.36-1.07,3.68c0.17,1.32,0.89,2.51,1.97,3.29c0.84,0.6,1.81,0.89,2.78,0.89
			c1.33,0,2.65-0.56,3.6-1.64L41.56,63.9l-2.07-1.82L23.6,80.22z"/>
		<rect x="12.88" y="36.83" width="31.78" height="2.76"/>
		<rect x="16.51" y="42.34" width="21.25" height="2.76"/>
		<rect x="19.95" y="47.85" width="16.44" height="2.76"/>
		<rect x="9.53" y="31.31" width="25.48" height="2.76"/>
	</g>
</g>
</svg>
